<mxfile host="app.diagrams.net" agent="Mozilla/5.0 (Windows NT 10.0; Win64; x64) AppleWebKit/537.36 (KHTML, like Gecko) Chrome/133.0.0.0 Safari/537.36 Edg/133.0.0.0" version="26.0.14">
  <diagram name="Page-1" id="2019030504864">
    <mxGraphModel dx="1976" dy="634" grid="1" gridSize="10" guides="1" tooltips="1" connect="1" arrows="1" fold="1" page="1" pageScale="1" pageWidth="850" pageHeight="1100" math="0" shadow="0">
      <root>
        <mxCell id="0" />
        <mxCell id="1" parent="0" />
        <mxCell id="2019030503232" value="Начало" style="whiteSpace=wrap;rounded=0;dashed=0;strokeWidth=2;shape=mxgraph.flowchart.start_1;" parent="1" vertex="1">
          <mxGeometry x="40" y="50" width="120" height="80" as="geometry" />
        </mxCell>
        <mxCell id="2019030503184" value="#include &lt;iostream&gt; using namespace std;" style="whiteSpace=wrap;rounded=0;dashed=0;strokeWidth=2;shape=mxgraph.flowchart.annotation_1;align=left;pointerEvents=1;" parent="1" vertex="1">
          <mxGeometry x="330" y="50" width="140" height="80" as="geometry" />
        </mxCell>
        <mxCell id="2019045475040" style="edgeStyle=orthogonalEdgeStyle;orthogonalLoop=1;dashed=1;dashPattern=8 8;rounded=0;jettySize=auto;entryX=1;entryY=0.5;entryDx=0;entryDy=0;exitX=0;exitY=0.5;exitDx=0;exitDy=0;targetPerimeterSpacing=0;sourcePerimeterSpacing=0;" parent="1" source="2019030503184" target="2019030503232" edge="1">
          <mxGeometry relative="1" as="geometry" />
        </mxCell>
        <mxCell id="2019045475856" value="int main()" style="whiteSpace=wrap;rounded=0;dashed=0;inherit=default;shape=process;backgroundOutline=1;" parent="1" vertex="1">
          <mxGeometry x="40" y="150" width="120" height="80" as="geometry" />
        </mxCell>
        <mxCell id="2019045474992" style="edgeStyle=orthogonalEdgeStyle;orthogonalLoop=1;rounded=0;jettySize=auto;entryX=0.5;entryY=0;entryDx=0;entryDy=0;exitX=0.5;exitY=1;exitDx=0;exitDy=0;targetPerimeterSpacing=0;sourcePerimeterSpacing=0;" parent="1" source="2019030503232" target="2019045475856" edge="1">
          <mxGeometry relative="1" as="geometry" />
        </mxCell>
        <mxCell id="2019045475616" value="setlocale(LC_ALL, &quot;Russian&quot;);" style="whiteSpace=wrap;rounded=1;dashed=0;absoluteArcSize=1;arcSize=14;strokeWidth=2;" parent="1" vertex="1">
          <mxGeometry x="-1.5" y="270" width="203" height="80" as="geometry" />
        </mxCell>
        <mxCell id="2019045475376" value="int rows, cols, index;" style="whiteSpace=wrap;rounded=1;dashed=0;absoluteArcSize=1;arcSize=14;strokeWidth=2;" parent="1" vertex="1">
          <mxGeometry x="23" y="390" width="154" height="80" as="geometry" />
        </mxCell>
        <mxCell id="2019045475232" style="edgeStyle=orthogonalEdgeStyle;orthogonalLoop=1;rounded=0;jettySize=auto;entryX=0.5;entryY=0;entryDx=0;entryDy=0;exitX=0.5;exitY=1;exitDx=0;exitDy=0;targetPerimeterSpacing=0;sourcePerimeterSpacing=0;" parent="1" source="2019045475616" target="2019045475376" edge="1">
          <mxGeometry relative="1" as="geometry" />
        </mxCell>
        <mxCell id="2019045475808" value="cout &lt;&lt; &quot;Введите количество строк: &quot;;" style="whiteSpace=wrap;rounded=1;dashed=0;shape=parallelogram;strokeWidth=2;perimter=parallelogramPerimeter;arcSize=12;size=0.23;" parent="1" vertex="1">
          <mxGeometry x="-49.5" y="510" width="299" height="80" as="geometry" />
        </mxCell>
        <mxCell id="2019045476384" style="edgeStyle=orthogonalEdgeStyle;orthogonalLoop=1;rounded=0;jettySize=auto;entryX=0.5;entryY=0;entryDx=0;entryDy=0;exitX=0.5;exitY=1;exitDx=0;exitDy=0;targetPerimeterSpacing=0;sourcePerimeterSpacing=0;" parent="1" source="2019045475376" target="2019045475808" edge="1">
          <mxGeometry relative="1" as="geometry" />
        </mxCell>
        <mxCell id="2019045475952" value="cin &gt;&gt; rows;" style="whiteSpace=wrap;rounded=1;dashed=0;shape=parallelogram;strokeWidth=2;perimter=parallelogramPerimeter;arcSize=12;size=0.23;" parent="1" vertex="1">
          <mxGeometry x="20" y="630" width="160" height="80" as="geometry" />
        </mxCell>
        <mxCell id="2019045488576" style="edgeStyle=orthogonalEdgeStyle;orthogonalLoop=1;rounded=0;jettySize=auto;entryX=0.5;entryY=0;entryDx=0;entryDy=0;exitX=0.5;exitY=1;exitDx=0;exitDy=0;targetPerimeterSpacing=0;sourcePerimeterSpacing=0;" parent="1" source="2019045475808" target="2019045475952" edge="1">
          <mxGeometry relative="1" as="geometry" />
        </mxCell>
        <mxCell id="2019045476000" value="cout &lt;&lt; &quot;Введите количество столбцов: &quot;;" style="whiteSpace=wrap;rounded=1;dashed=0;shape=parallelogram;strokeWidth=2;perimter=parallelogramPerimeter;arcSize=12;size=0.23;" parent="1" vertex="1">
          <mxGeometry x="-60" y="750" width="320" height="80" as="geometry" />
        </mxCell>
        <mxCell id="2019045476096" style="edgeStyle=orthogonalEdgeStyle;orthogonalLoop=1;rounded=0;jettySize=auto;entryX=0.5;entryY=0;entryDx=0;entryDy=0;exitX=0.5;exitY=1;exitDx=0;exitDy=0;targetPerimeterSpacing=0;sourcePerimeterSpacing=0;" parent="1" source="2019045475952" target="2019045476000" edge="1">
          <mxGeometry relative="1" as="geometry" />
        </mxCell>
        <mxCell id="2019045476048" value="cin &gt;&gt; cols;" style="whiteSpace=wrap;rounded=1;dashed=0;shape=parallelogram;strokeWidth=2;perimter=parallelogramPerimeter;arcSize=12;size=0.23;" parent="1" vertex="1">
          <mxGeometry x="20" y="870" width="160" height="80" as="geometry" />
        </mxCell>
        <mxCell id="2019045476768" style="edgeStyle=orthogonalEdgeStyle;orthogonalLoop=1;rounded=0;jettySize=auto;entryX=0.5;entryY=0;entryDx=0;entryDy=0;exitX=0.5;exitY=1;exitDx=0;exitDy=0;targetPerimeterSpacing=0;sourcePerimeterSpacing=0;" parent="1" source="2019045476000" target="2019045476048" edge="1">
          <mxGeometry relative="1" as="geometry" />
        </mxCell>
        <mxCell id="2019045476720" value="cout &lt;&lt; &quot;Введите индекс строки/столбца для удаления (начиная с 0): &quot;;" style="whiteSpace=wrap;rounded=1;dashed=0;shape=parallelogram;strokeWidth=2;perimter=parallelogramPerimeter;arcSize=12;size=0.23;" parent="1" vertex="1">
          <mxGeometry x="-161.5" y="990" width="523" height="80" as="geometry" />
        </mxCell>
        <mxCell id="2019045476144" style="edgeStyle=orthogonalEdgeStyle;orthogonalLoop=1;rounded=0;jettySize=auto;entryX=0.5;entryY=0;entryDx=0;entryDy=0;exitX=0.5;exitY=1;exitDx=0;exitDy=0;targetPerimeterSpacing=0;sourcePerimeterSpacing=0;" parent="1" source="2019045476048" target="2019045476720" edge="1">
          <mxGeometry relative="1" as="geometry" />
        </mxCell>
        <mxCell id="2019045474464" value="cin &gt;&gt; index;" style="whiteSpace=wrap;rounded=1;dashed=0;shape=parallelogram;strokeWidth=2;perimter=parallelogramPerimeter;arcSize=12;size=0.23;" parent="1" vertex="1">
          <mxGeometry x="20" y="1110" width="160" height="80" as="geometry" />
        </mxCell>
        <mxCell id="2019045474800" style="edgeStyle=orthogonalEdgeStyle;orthogonalLoop=1;rounded=0;jettySize=auto;entryX=0.5;entryY=0;entryDx=0;entryDy=0;exitX=0.5;exitY=1;exitDx=0;exitDy=0;targetPerimeterSpacing=0;sourcePerimeterSpacing=0;" parent="1" source="2019045476720" target="2019045474464" edge="1">
          <mxGeometry relative="1" as="geometry" />
        </mxCell>
        <mxCell id="2019045476192" value="if (index &lt; 0 || index &gt;= rows || index &gt;= cols)" style="whiteSpace=wrap;rounded=0;dashed=0;strokeWidth=2;shape=mxgraph.flowchart.decision;" parent="1" vertex="1">
          <mxGeometry x="-68" y="1230" width="336" height="80" as="geometry" />
        </mxCell>
        <mxCell id="2019045477008" value="cout &lt;&lt; &quot;Некорректный индекс.&quot; &lt;&lt; endl;" style="whiteSpace=wrap;rounded=1;dashed=0;shape=parallelogram;strokeWidth=2;perimter=parallelogramPerimeter;arcSize=12;size=0.23;" parent="1" vertex="1">
          <mxGeometry x="-250" y="1350" width="313" height="80" as="geometry" />
        </mxCell>
        <mxCell id="2019045477920" value="return 1;" style="whiteSpace=wrap;rounded=0;dashed=0;strokeWidth=2;shape=mxgraph.flowchart.terminator;" parent="1" vertex="1">
          <mxGeometry x="-153.5" y="1470" width="120" height="80" as="geometry" />
        </mxCell>
        <mxCell id="2019045477824" style="edgeStyle=orthogonalEdgeStyle;orthogonalLoop=1;rounded=0;jettySize=auto;entryX=0.5;entryY=0;entryDx=0;entryDy=0;exitX=0.5;exitY=1;exitDx=0;exitDy=0;targetPerimeterSpacing=0;sourcePerimeterSpacing=0;" parent="1" source="2019045477008" target="2019045477920" edge="1">
          <mxGeometry relative="1" as="geometry" />
        </mxCell>
        <mxCell id="2019045477104" value="1" style="edgeStyle=orthogonalEdgeStyle;orthogonalLoop=1;rounded=0;jettySize=auto;entryX=0.5;entryY=0;entryDx=0;entryDy=0;exitX=0;exitY=0.5;exitDx=0;exitDy=0;targetPerimeterSpacing=30;sourcePerimeterSpacing=30;" parent="1" source="2019045476192" target="2019045477008" edge="1">
          <mxGeometry y="-25" relative="1" as="geometry" />
        </mxCell>
        <mxCell id="2019045477968" style="edgeStyle=orthogonalEdgeStyle;orthogonalLoop=1;rounded=0;jettySize=auto;entryX=0.5;entryY=0;entryDx=0;entryDy=0;exitX=0.5;exitY=1;exitDx=0;exitDy=0;targetPerimeterSpacing=0;sourcePerimeterSpacing=0;" parent="1" source="2019045474464" target="2019045476192" edge="1">
          <mxGeometry relative="1" as="geometry" />
        </mxCell>
        <mxCell id="2019045477392" value="int** arr = new int* [rows];" style="whiteSpace=wrap;rounded=1;dashed=0;absoluteArcSize=1;arcSize=14;strokeWidth=2;" parent="1" vertex="1">
          <mxGeometry x="2" y="1660" width="196" height="80" as="geometry" />
        </mxCell>
        <mxCell id="2019045477776" style="edgeStyle=orthogonalEdgeStyle;orthogonalLoop=1;rounded=0;jettySize=auto;entryX=0.5;entryY=0;entryDx=0;entryDy=0;exitX=0.5;exitY=1;exitDx=0;exitDy=0;targetPerimeterSpacing=0;sourcePerimeterSpacing=0;" parent="1" source="2019045477920" target="2019045477392" edge="1">
          <mxGeometry relative="1" as="geometry">
            <Array as="points">
              <mxPoint x="-90" y="1550" />
              <mxPoint x="-90" y="1600" />
              <mxPoint x="100" y="1600" />
            </Array>
          </mxGeometry>
        </mxCell>
        <mxCell id="2019045477728" style="edgeStyle=orthogonalEdgeStyle;orthogonalLoop=1;rounded=0;jettySize=auto;entryX=0.5;entryY=0;entryDx=0;entryDy=0;exitX=1;exitY=0.5;exitDx=0;exitDy=0;targetPerimeterSpacing=30;sourcePerimeterSpacing=30;" parent="1" source="2019045476192" target="2019045477392" edge="1">
          <mxGeometry relative="1" as="geometry">
            <Array as="points">
              <mxPoint x="288" y="1270" />
              <mxPoint x="288" y="1600" />
              <mxPoint x="100" y="1600" />
            </Array>
          </mxGeometry>
        </mxCell>
        <mxCell id="2019045478160" value="for (int i = 0; i &lt; rows; i++)" style="whiteSpace=wrap;rounded=0;dashed=0;inherit=default;shape=hexagon;perimeter=hexagonPerimeter2;fixedSize=1;" parent="1" vertex="1">
          <mxGeometry x="-110" y="1780" width="420" height="80" as="geometry" />
        </mxCell>
        <mxCell id="2019045478880" value="arr[i] = new int[cols];" style="whiteSpace=wrap;rounded=1;dashed=0;absoluteArcSize=1;arcSize=14;strokeWidth=2;" parent="1" vertex="1">
          <mxGeometry x="19.5" y="1900" width="161" height="80" as="geometry" />
        </mxCell>
        <mxCell id="2019045478304" value="1" style="edgeStyle=orthogonalEdgeStyle;orthogonalLoop=1;rounded=0;jettySize=auto;entryX=0.5;entryY=0;entryDx=0;entryDy=0;exitX=0.5;exitY=1;exitDx=0;exitDy=0;targetPerimeterSpacing=30;sourcePerimeterSpacing=30;" parent="1" source="2019045478160" target="2019045478880" edge="1">
          <mxGeometry y="25" relative="1" as="geometry" />
        </mxCell>
        <mxCell id="2019045478736" value="0" style="edgeStyle=orthogonalEdgeStyle;orthogonalLoop=1;rounded=0;jettySize=auto;entryX=0;entryY=0.5;entryDx=0;entryDy=0;exitX=0.5;exitY=1;exitDx=0;exitDy=0;targetPerimeterSpacing=30;sourcePerimeterSpacing=30;" parent="1" source="2019045478880" target="2019045478160" edge="1">
          <mxGeometry x="-1" y="291" relative="1" as="geometry">
            <mxPoint x="-71" y="-190" as="offset" />
          </mxGeometry>
        </mxCell>
        <mxCell id="2019045478976" style="edgeStyle=orthogonalEdgeStyle;orthogonalLoop=1;rounded=0;jettySize=auto;entryX=0.5;entryY=0;entryDx=0;entryDy=0;exitX=0.5;exitY=1;exitDx=0;exitDy=0;targetPerimeterSpacing=0;sourcePerimeterSpacing=0;" parent="1" source="2019045477392" target="2019045478160" edge="1">
          <mxGeometry relative="1" as="geometry" />
        </mxCell>
        <mxCell id="2019045478496" value="int value = 1;" style="whiteSpace=wrap;rounded=1;dashed=0;absoluteArcSize=1;arcSize=14;strokeWidth=2;" parent="1" vertex="1">
          <mxGeometry x="40" y="2090" width="120" height="80" as="geometry" />
        </mxCell>
        <mxCell id="2019045479792" style="edgeStyle=orthogonalEdgeStyle;orthogonalLoop=1;rounded=0;jettySize=auto;entryX=0.5;entryY=0;entryDx=0;entryDy=0;exitX=1;exitY=0.5;exitDx=0;exitDy=0;targetPerimeterSpacing=30;sourcePerimeterSpacing=30;" parent="1" source="2019045478160" target="2019045478496" edge="1">
          <mxGeometry relative="1" as="geometry">
            <Array as="points">
              <mxPoint x="330" y="1820" />
              <mxPoint x="330" y="2020" />
              <mxPoint x="100" y="2020" />
            </Array>
          </mxGeometry>
        </mxCell>
        <mxCell id="2019045479216" value="for (int i = 0; i &lt; rows; i++)" style="whiteSpace=wrap;rounded=0;dashed=0;inherit=default;shape=hexagon;perimeter=hexagonPerimeter2;fixedSize=1;" parent="1" vertex="1">
          <mxGeometry x="-110" y="2210" width="420" height="80" as="geometry" />
        </mxCell>
        <mxCell id="NVaQKIY8q6ePWPQGP_k0-2019067193365" style="edgeStyle=orthogonalEdgeStyle;rounded=0;orthogonalLoop=1;jettySize=auto;html=1;entryX=0;entryY=0.5;entryDx=0;entryDy=0;" edge="1" parent="1" source="2019045479456" target="2019045479216">
          <mxGeometry relative="1" as="geometry">
            <Array as="points">
              <mxPoint x="330" y="2370" />
              <mxPoint x="330" y="2610" />
              <mxPoint x="-150" y="2610" />
              <mxPoint x="-150" y="2250" />
            </Array>
          </mxGeometry>
        </mxCell>
        <mxCell id="2019045479456" value="for (int j = 0; j &lt; cols; j++)" style="whiteSpace=wrap;rounded=0;dashed=0;inherit=default;shape=hexagon;perimeter=hexagonPerimeter2;fixedSize=1;" parent="1" vertex="1">
          <mxGeometry x="-110" y="2330" width="420" height="80" as="geometry" />
        </mxCell>
        <mxCell id="2019045480368" value="arr[i][j] = value++;" style="whiteSpace=wrap;rounded=1;dashed=0;absoluteArcSize=1;arcSize=14;strokeWidth=2;" parent="1" vertex="1">
          <mxGeometry x="30" y="2450" width="140" height="80" as="geometry" />
        </mxCell>
        <mxCell id="2019045479264" value="1" style="edgeStyle=orthogonalEdgeStyle;orthogonalLoop=1;rounded=0;jettySize=auto;entryX=0.5;entryY=0;entryDx=0;entryDy=0;exitX=0.5;exitY=1;exitDx=0;exitDy=0;targetPerimeterSpacing=30;sourcePerimeterSpacing=30;" parent="1" source="2019045479456" target="2019045480368" edge="1">
          <mxGeometry y="25" relative="1" as="geometry" />
        </mxCell>
        <mxCell id="2019045481760" value="0" style="edgeStyle=orthogonalEdgeStyle;orthogonalLoop=1;rounded=0;jettySize=auto;entryX=0;entryY=0.5;entryDx=0;entryDy=0;exitX=0.5;exitY=1;exitDx=0;exitDy=0;targetPerimeterSpacing=30;sourcePerimeterSpacing=30;" parent="1" source="2019045480368" target="2019045479456" edge="1">
          <mxGeometry x="-1" y="284" relative="1" as="geometry">
            <mxPoint x="-64" y="-180" as="offset" />
          </mxGeometry>
        </mxCell>
        <mxCell id="2019045479312" value="1" style="edgeStyle=orthogonalEdgeStyle;orthogonalLoop=1;rounded=0;jettySize=auto;entryX=0.5;entryY=0;entryDx=0;entryDy=0;exitX=0.5;exitY=1;exitDx=0;exitDy=0;targetPerimeterSpacing=30;sourcePerimeterSpacing=30;" parent="1" source="2019045479216" target="2019045479456" edge="1">
          <mxGeometry y="25" relative="1" as="geometry" />
        </mxCell>
        <mxCell id="2019045479984" style="edgeStyle=orthogonalEdgeStyle;orthogonalLoop=1;rounded=0;jettySize=auto;entryX=0.5;entryY=0;entryDx=0;entryDy=0;exitX=0.5;exitY=1;exitDx=0;exitDy=0;targetPerimeterSpacing=0;sourcePerimeterSpacing=0;" parent="1" source="2019045478496" target="2019045479216" edge="1">
          <mxGeometry relative="1" as="geometry" />
        </mxCell>
        <mxCell id="2019045480032" value="int newRows = rows - 1;" style="whiteSpace=wrap;rounded=1;dashed=0;absoluteArcSize=1;arcSize=14;strokeWidth=2;" parent="1" vertex="1">
          <mxGeometry x="19.5" y="2710" width="161" height="80" as="geometry" />
        </mxCell>
        <mxCell id="2019045480752" style="edgeStyle=orthogonalEdgeStyle;orthogonalLoop=1;rounded=0;jettySize=auto;entryX=0.5;entryY=0;entryDx=0;entryDy=0;exitX=1;exitY=0.5;exitDx=0;exitDy=0;targetPerimeterSpacing=30;sourcePerimeterSpacing=30;" parent="1" source="2019045479216" target="2019045480032" edge="1">
          <mxGeometry relative="1" as="geometry">
            <Array as="points">
              <mxPoint x="370" y="2250" />
              <mxPoint x="370" y="2630" />
              <mxPoint x="100" y="2630" />
            </Array>
          </mxGeometry>
        </mxCell>
        <mxCell id="2019045480464" value="int newCols = cols - 1;" style="whiteSpace=wrap;rounded=1;dashed=0;absoluteArcSize=1;arcSize=14;strokeWidth=2;" parent="1" vertex="1">
          <mxGeometry x="19.5" y="2830" width="161" height="80" as="geometry" />
        </mxCell>
        <mxCell id="2019045481040" style="edgeStyle=orthogonalEdgeStyle;orthogonalLoop=1;rounded=0;jettySize=auto;entryX=0.5;entryY=0;entryDx=0;entryDy=0;exitX=0.5;exitY=1;exitDx=0;exitDy=0;targetPerimeterSpacing=0;sourcePerimeterSpacing=0;" parent="1" source="2019045480032" target="2019045480464" edge="1">
          <mxGeometry relative="1" as="geometry" />
        </mxCell>
        <mxCell id="2019045480128" value="int** newArr = new int* [newRows];" style="whiteSpace=wrap;rounded=1;dashed=0;absoluteArcSize=1;arcSize=14;strokeWidth=2;" parent="1" vertex="1">
          <mxGeometry x="-19" y="2950" width="238" height="80" as="geometry" />
        </mxCell>
        <mxCell id="2019045481664" style="edgeStyle=orthogonalEdgeStyle;orthogonalLoop=1;rounded=0;jettySize=auto;entryX=0.5;entryY=0;entryDx=0;entryDy=0;exitX=0.5;exitY=1;exitDx=0;exitDy=0;targetPerimeterSpacing=0;sourcePerimeterSpacing=0;" parent="1" source="2019045480464" target="2019045480128" edge="1">
          <mxGeometry relative="1" as="geometry" />
        </mxCell>
        <mxCell id="2019045479648" value="for (int i = 0; i &lt; newRows; i++)" style="whiteSpace=wrap;rounded=0;dashed=0;inherit=default;shape=hexagon;perimeter=hexagonPerimeter2;fixedSize=1;" parent="1" vertex="1">
          <mxGeometry x="-131" y="3070" width="462" height="80" as="geometry" />
        </mxCell>
        <mxCell id="2019045481520" value="newArr[i] = new int[newCols];" style="whiteSpace=wrap;rounded=1;dashed=0;absoluteArcSize=1;arcSize=14;strokeWidth=2;" parent="1" vertex="1">
          <mxGeometry x="-1.5" y="3190" width="203" height="80" as="geometry" />
        </mxCell>
        <mxCell id="2019045481184" value="1" style="edgeStyle=orthogonalEdgeStyle;orthogonalLoop=1;rounded=0;jettySize=auto;entryX=0.5;entryY=0;entryDx=0;entryDy=0;exitX=0.5;exitY=1;exitDx=0;exitDy=0;targetPerimeterSpacing=30;sourcePerimeterSpacing=30;" parent="1" source="2019045479648" target="2019045481520" edge="1">
          <mxGeometry y="25" relative="1" as="geometry" />
        </mxCell>
        <mxCell id="2019045481856" value="0" style="edgeStyle=orthogonalEdgeStyle;orthogonalLoop=1;rounded=0;jettySize=auto;entryX=0;entryY=0.5;entryDx=0;entryDy=0;exitX=0.5;exitY=1;exitDx=0;exitDy=0;targetPerimeterSpacing=30;sourcePerimeterSpacing=30;" parent="1" source="2019045481520" target="2019045479648" edge="1">
          <mxGeometry x="-1" y="300" relative="1" as="geometry">
            <mxPoint x="-60" y="-180" as="offset" />
          </mxGeometry>
        </mxCell>
        <mxCell id="2019045481136" style="edgeStyle=orthogonalEdgeStyle;orthogonalLoop=1;rounded=0;jettySize=auto;entryX=0.5;entryY=0;entryDx=0;entryDy=0;exitX=0.5;exitY=1;exitDx=0;exitDy=0;targetPerimeterSpacing=0;sourcePerimeterSpacing=0;" parent="1" source="2019045480128" target="2019045479648" edge="1">
          <mxGeometry relative="1" as="geometry" />
        </mxCell>
        <mxCell id="2019045481328" value="int ni = 0;" style="whiteSpace=wrap;rounded=1;dashed=0;absoluteArcSize=1;arcSize=14;strokeWidth=2;" parent="1" vertex="1">
          <mxGeometry x="40" y="3380" width="120" height="80" as="geometry" />
        </mxCell>
        <mxCell id="2019045482000" style="edgeStyle=orthogonalEdgeStyle;orthogonalLoop=1;rounded=0;jettySize=auto;entryX=0.5;entryY=0;entryDx=0;entryDy=0;exitX=1;exitY=0.5;exitDx=0;exitDy=0;targetPerimeterSpacing=30;sourcePerimeterSpacing=30;" parent="1" source="2019045479648" target="2019045481328" edge="1">
          <mxGeometry relative="1" as="geometry">
            <Array as="points">
              <mxPoint x="351" y="3110" />
              <mxPoint x="351" y="3300" />
              <mxPoint x="100" y="3300" />
            </Array>
          </mxGeometry>
        </mxCell>
        <mxCell id="2019045480800" value="for (int i = 0; i &lt; rows; i++)" style="whiteSpace=wrap;rounded=0;dashed=0;inherit=default;shape=hexagon;perimeter=hexagonPerimeter2;fixedSize=1;" parent="1" vertex="1">
          <mxGeometry x="-110" y="3500" width="420" height="80" as="geometry" />
        </mxCell>
        <mxCell id="NVaQKIY8q6ePWPQGP_k0-2019067193356" style="edgeStyle=orthogonalEdgeStyle;rounded=0;orthogonalLoop=1;jettySize=auto;html=1;" edge="1" parent="1" source="2019045482432">
          <mxGeometry relative="1" as="geometry">
            <mxPoint x="130" y="4610" as="targetPoint" />
            <Array as="points">
              <mxPoint x="220" y="3660" />
              <mxPoint x="220" y="4560" />
              <mxPoint x="130" y="4560" />
            </Array>
          </mxGeometry>
        </mxCell>
        <mxCell id="2019045482432" value="if (i != index)" style="whiteSpace=wrap;rounded=0;dashed=0;strokeWidth=2;shape=mxgraph.flowchart.decision;" parent="1" vertex="1">
          <mxGeometry x="40" y="3620" width="120" height="80" as="geometry" />
        </mxCell>
        <mxCell id="2019045481952" value="int nj = 0;" style="whiteSpace=wrap;rounded=1;dashed=0;absoluteArcSize=1;arcSize=14;strokeWidth=2;" parent="1" vertex="1">
          <mxGeometry x="-110" y="3740" width="120" height="80" as="geometry" />
        </mxCell>
        <mxCell id="NVaQKIY8q6ePWPQGP_k0-2019067193355" style="edgeStyle=orthogonalEdgeStyle;rounded=0;orthogonalLoop=1;jettySize=auto;html=1;" edge="1" parent="1" source="2019045483200" target="2019045484016">
          <mxGeometry relative="1" as="geometry">
            <Array as="points">
              <mxPoint x="170" y="3900" />
              <mxPoint x="170" y="4390" />
              <mxPoint x="-8" y="4390" />
            </Array>
          </mxGeometry>
        </mxCell>
        <mxCell id="2019045483200" value="for (int j = 0; j &lt; cols; j++)" style="whiteSpace=wrap;rounded=0;dashed=0;inherit=default;shape=hexagon;perimeter=hexagonPerimeter2;fixedSize=1;" parent="1" vertex="1">
          <mxGeometry x="-260" y="3860" width="420" height="80" as="geometry" />
        </mxCell>
        <mxCell id="NVaQKIY8q6ePWPQGP_k0-2019067193351" style="edgeStyle=orthogonalEdgeStyle;rounded=0;orthogonalLoop=1;jettySize=auto;html=1;" edge="1" parent="1" source="2019045483008">
          <mxGeometry relative="1" as="geometry">
            <mxPoint x="-140" y="4380" as="targetPoint" />
            <Array as="points">
              <mxPoint x="30" y="4020" />
              <mxPoint x="30" y="4340" />
              <mxPoint x="-140" y="4340" />
            </Array>
          </mxGeometry>
        </mxCell>
        <mxCell id="2019045483008" value="if (j != index)" style="whiteSpace=wrap;rounded=0;dashed=0;strokeWidth=2;shape=mxgraph.flowchart.decision;" parent="1" vertex="1">
          <mxGeometry x="-110" y="3980" width="120" height="80" as="geometry" />
        </mxCell>
        <mxCell id="2019045483344" value="newArr[ni][nj] = arr[i][j];" style="whiteSpace=wrap;rounded=1;dashed=0;absoluteArcSize=1;arcSize=14;strokeWidth=2;" parent="1" vertex="1">
          <mxGeometry x="-294.5" y="4100" width="189" height="80" as="geometry" />
        </mxCell>
        <mxCell id="NVaQKIY8q6ePWPQGP_k0-2019067193352" style="edgeStyle=orthogonalEdgeStyle;rounded=0;orthogonalLoop=1;jettySize=auto;html=1;" edge="1" parent="1" source="2019045484352">
          <mxGeometry relative="1" as="geometry">
            <mxPoint x="-140" y="4380" as="targetPoint" />
          </mxGeometry>
        </mxCell>
        <mxCell id="2019045484352" value="nj++;" style="whiteSpace=wrap;rounded=1;dashed=0;absoluteArcSize=1;arcSize=14;strokeWidth=2;" parent="1" vertex="1">
          <mxGeometry x="-260" y="4220" width="120" height="80" as="geometry" />
        </mxCell>
        <mxCell id="2019045483536" style="edgeStyle=orthogonalEdgeStyle;orthogonalLoop=1;rounded=0;jettySize=auto;entryX=0.5;entryY=0;entryDx=0;entryDy=0;exitX=0.5;exitY=1;exitDx=0;exitDy=0;targetPerimeterSpacing=0;sourcePerimeterSpacing=0;" parent="1" source="2019045483344" target="2019045484352" edge="1">
          <mxGeometry relative="1" as="geometry" />
        </mxCell>
        <mxCell id="NVaQKIY8q6ePWPQGP_k0-2019067193358" style="edgeStyle=orthogonalEdgeStyle;rounded=0;orthogonalLoop=1;jettySize=auto;html=1;entryX=0;entryY=0.5;entryDx=0;entryDy=0;" edge="1" parent="1" source="2019045484016" target="2019045480800">
          <mxGeometry relative="1" as="geometry">
            <mxPoint x="100" y="4610" as="targetPoint" />
            <Array as="points">
              <mxPoint x="-8" y="4560" />
              <mxPoint x="131" y="4560" />
              <mxPoint x="131" y="4610" />
              <mxPoint x="-370" y="4610" />
              <mxPoint x="-370" y="3540" />
            </Array>
          </mxGeometry>
        </mxCell>
        <mxCell id="2019045484016" value="ni++;" style="whiteSpace=wrap;rounded=1;dashed=0;absoluteArcSize=1;arcSize=14;strokeWidth=2;" parent="1" vertex="1">
          <mxGeometry x="-68" y="4430" width="120" height="80" as="geometry" />
        </mxCell>
        <mxCell id="2019045482528" value="1" style="edgeStyle=orthogonalEdgeStyle;orthogonalLoop=1;rounded=0;jettySize=auto;entryX=0.5;entryY=0;entryDx=0;entryDy=0;exitX=0;exitY=0.5;exitDx=0;exitDy=0;targetPerimeterSpacing=30;sourcePerimeterSpacing=30;" parent="1" source="2019045483008" target="2019045483344" edge="1">
          <mxGeometry y="-25" relative="1" as="geometry" />
        </mxCell>
        <mxCell id="2019045482240" value="1" style="edgeStyle=orthogonalEdgeStyle;orthogonalLoop=1;rounded=0;jettySize=auto;entryX=0.5;entryY=0;entryDx=0;entryDy=0;exitX=0.5;exitY=1;exitDx=0;exitDy=0;targetPerimeterSpacing=30;sourcePerimeterSpacing=30;" parent="1" source="2019045483200" target="2019045483008" edge="1">
          <mxGeometry y="25" relative="1" as="geometry" />
        </mxCell>
        <mxCell id="2019067193056" style="edgeStyle=orthogonalEdgeStyle;orthogonalLoop=1;rounded=0;jettySize=auto;entryX=0.5;entryY=0;entryDx=0;entryDy=0;exitX=0.5;exitY=1;exitDx=0;exitDy=0;targetPerimeterSpacing=0;sourcePerimeterSpacing=0;" parent="1" source="2019045481952" target="2019045483200" edge="1">
          <mxGeometry relative="1" as="geometry" />
        </mxCell>
        <mxCell id="2019045482672" value="1" style="edgeStyle=orthogonalEdgeStyle;orthogonalLoop=1;rounded=0;jettySize=auto;entryX=0.5;entryY=0;entryDx=0;entryDy=0;exitX=0;exitY=0.5;exitDx=0;exitDy=0;targetPerimeterSpacing=30;sourcePerimeterSpacing=30;" parent="1" source="2019045482432" target="2019045481952" edge="1">
          <mxGeometry y="-25" relative="1" as="geometry" />
        </mxCell>
        <mxCell id="2019045482288" value="1" style="edgeStyle=orthogonalEdgeStyle;orthogonalLoop=1;rounded=0;jettySize=auto;entryX=0.5;entryY=0;entryDx=0;entryDy=0;exitX=0.5;exitY=1;exitDx=0;exitDy=0;targetPerimeterSpacing=30;sourcePerimeterSpacing=30;" parent="1" source="2019045480800" target="2019045482432" edge="1">
          <mxGeometry y="25" relative="1" as="geometry" />
        </mxCell>
        <mxCell id="2019067192240" style="edgeStyle=orthogonalEdgeStyle;orthogonalLoop=1;rounded=0;jettySize=auto;entryX=0.5;entryY=0;entryDx=0;entryDy=0;exitX=0.5;exitY=1;exitDx=0;exitDy=0;targetPerimeterSpacing=0;sourcePerimeterSpacing=0;" parent="1" source="2019045481328" target="2019045480800" edge="1">
          <mxGeometry relative="1" as="geometry" />
        </mxCell>
        <mxCell id="2019067192768" value="cout &lt;&lt; &quot;Новый массив:&quot; &lt;&lt; endl;" style="whiteSpace=wrap;rounded=1;dashed=0;shape=parallelogram;strokeWidth=2;perimter=parallelogramPerimeter;arcSize=12;size=0.23;" parent="1" vertex="1">
          <mxGeometry x="-32" y="4740" width="264" height="80" as="geometry" />
        </mxCell>
        <mxCell id="2019067192192" style="edgeStyle=orthogonalEdgeStyle;orthogonalLoop=1;rounded=0;jettySize=auto;entryX=0.5;entryY=0;entryDx=0;entryDy=0;exitX=1;exitY=0.5;exitDx=0;exitDy=0;targetPerimeterSpacing=30;sourcePerimeterSpacing=30;" parent="1" source="2019045480800" target="2019067192768" edge="1">
          <mxGeometry relative="1" as="geometry">
            <Array as="points">
              <mxPoint x="330" y="3540" />
              <mxPoint x="330" y="4720" />
              <mxPoint x="100" y="4720" />
            </Array>
          </mxGeometry>
        </mxCell>
        <mxCell id="2019067192336" value="for (int i = 0; i &lt; newRows; i++)" style="whiteSpace=wrap;rounded=0;dashed=0;inherit=default;shape=hexagon;perimeter=hexagonPerimeter2;fixedSize=1;" parent="1" vertex="1">
          <mxGeometry x="-131" y="4860" width="462" height="80" as="geometry" />
        </mxCell>
        <mxCell id="2019067192000" value="for (int j = 0; j &lt; newCols; j++)" style="whiteSpace=wrap;rounded=0;dashed=0;inherit=default;shape=hexagon;perimeter=hexagonPerimeter2;fixedSize=1;" parent="1" vertex="1">
          <mxGeometry x="-131" y="4980" width="462" height="80" as="geometry" />
        </mxCell>
        <mxCell id="NVaQKIY8q6ePWPQGP_k0-2019067193345" style="edgeStyle=orthogonalEdgeStyle;rounded=0;orthogonalLoop=1;jettySize=auto;html=1;entryX=0;entryY=0.5;entryDx=0;entryDy=0;" edge="1" parent="1" source="2019067191712" target="2019067192000">
          <mxGeometry relative="1" as="geometry">
            <Array as="points">
              <mxPoint x="100" y="5200" />
              <mxPoint x="-151" y="5200" />
              <mxPoint x="-151" y="5020" />
            </Array>
          </mxGeometry>
        </mxCell>
        <mxCell id="2019067191712" value="cout &lt;&lt; newArr[i][j] &lt;&lt; &quot; &quot;;" style="whiteSpace=wrap;rounded=1;dashed=0;shape=parallelogram;strokeWidth=2;perimter=parallelogramPerimeter;arcSize=12;size=0.23;" parent="1" vertex="1">
          <mxGeometry x="-18" y="5100" width="236" height="80" as="geometry" />
        </mxCell>
        <mxCell id="NVaQKIY8q6ePWPQGP_k0-2019067193347" style="edgeStyle=orthogonalEdgeStyle;rounded=0;orthogonalLoop=1;jettySize=auto;html=1;entryX=0;entryY=0.5;entryDx=0;entryDy=0;" edge="1" parent="1" source="2019067190848" target="2019067192336">
          <mxGeometry relative="1" as="geometry">
            <Array as="points">
              <mxPoint x="103" y="5340" />
              <mxPoint x="-180" y="5340" />
              <mxPoint x="-180" y="4900" />
            </Array>
          </mxGeometry>
        </mxCell>
        <mxCell id="2019067190848" value="cout &lt;&lt; endl;" style="whiteSpace=wrap;rounded=1;dashed=0;shape=parallelogram;strokeWidth=2;perimter=parallelogramPerimeter;arcSize=12;size=0.23;" parent="1" vertex="1">
          <mxGeometry x="23" y="5240" width="160" height="80" as="geometry" />
        </mxCell>
        <mxCell id="2019067191760" value="1" style="edgeStyle=orthogonalEdgeStyle;orthogonalLoop=1;rounded=0;jettySize=auto;entryX=0.5;entryY=0;entryDx=0;entryDy=0;exitX=0.5;exitY=1;exitDx=0;exitDy=0;targetPerimeterSpacing=30;sourcePerimeterSpacing=30;" parent="1" source="2019067192000" target="2019067191712" edge="1">
          <mxGeometry y="25" relative="1" as="geometry" />
        </mxCell>
        <mxCell id="2019067192048" value="1" style="edgeStyle=orthogonalEdgeStyle;orthogonalLoop=1;rounded=0;jettySize=auto;entryX=0.5;entryY=0;entryDx=0;entryDy=0;exitX=0.5;exitY=1;exitDx=0;exitDy=0;targetPerimeterSpacing=30;sourcePerimeterSpacing=30;" parent="1" source="2019067192336" target="2019067192000" edge="1">
          <mxGeometry y="25" relative="1" as="geometry" />
        </mxCell>
        <mxCell id="2019067190608" style="edgeStyle=orthogonalEdgeStyle;orthogonalLoop=1;rounded=0;jettySize=auto;entryX=0.5;entryY=0;entryDx=0;entryDy=0;exitX=0.5;exitY=1;exitDx=0;exitDy=0;targetPerimeterSpacing=0;sourcePerimeterSpacing=0;" parent="1" source="2019067192768" target="2019067192336" edge="1">
          <mxGeometry relative="1" as="geometry" />
        </mxCell>
        <mxCell id="2019067190992" value="for (int i = 0; i &lt; rows; i++)" style="whiteSpace=wrap;rounded=0;dashed=0;inherit=default;shape=hexagon;perimeter=hexagonPerimeter2;fixedSize=1;" parent="1" vertex="1">
          <mxGeometry x="-110" y="5480" width="420" height="80" as="geometry" />
        </mxCell>
        <mxCell id="2019067190320" value="delete[] arr[i];" style="whiteSpace=wrap;rounded=1;dashed=0;absoluteArcSize=1;arcSize=14;strokeWidth=2;" parent="1" vertex="1">
          <mxGeometry x="40" y="5600" width="120" height="80" as="geometry" />
        </mxCell>
        <mxCell id="2019067190464" value="1" style="edgeStyle=orthogonalEdgeStyle;orthogonalLoop=1;rounded=0;jettySize=auto;entryX=0.5;entryY=0;entryDx=0;entryDy=0;exitX=0.5;exitY=1;exitDx=0;exitDy=0;targetPerimeterSpacing=30;sourcePerimeterSpacing=30;" parent="1" source="2019067190992" target="2019067190320" edge="1">
          <mxGeometry y="25" relative="1" as="geometry" />
        </mxCell>
        <mxCell id="2019067190032" value="0" style="edgeStyle=orthogonalEdgeStyle;orthogonalLoop=1;rounded=0;jettySize=auto;entryX=0;entryY=0.5;entryDx=0;entryDy=0;exitX=0.5;exitY=1;exitDx=0;exitDy=0;targetPerimeterSpacing=30;sourcePerimeterSpacing=30;" parent="1" source="2019067190320" target="2019067190992" edge="1">
          <mxGeometry x="-1" y="297" relative="1" as="geometry">
            <mxPoint x="-97" y="-219" as="offset" />
          </mxGeometry>
        </mxCell>
        <mxCell id="2019067190080" style="edgeStyle=orthogonalEdgeStyle;orthogonalLoop=1;rounded=0;jettySize=auto;entryX=0.5;entryY=0;entryDx=0;entryDy=0;exitX=1;exitY=0.5;exitDx=0;exitDy=0;targetPerimeterSpacing=30;sourcePerimeterSpacing=30;" parent="1" source="2019067192336" target="2019067190992" edge="1">
          <mxGeometry relative="1" as="geometry">
            <Array as="points">
              <mxPoint x="400" y="4900" />
              <mxPoint x="400" y="5350" />
              <mxPoint x="100" y="5350" />
            </Array>
          </mxGeometry>
        </mxCell>
        <mxCell id="2019067190176" value="delete[] arr;" style="whiteSpace=wrap;rounded=1;dashed=0;absoluteArcSize=1;arcSize=14;strokeWidth=2;" parent="1" vertex="1">
          <mxGeometry x="40" y="5790" width="120" height="80" as="geometry" />
        </mxCell>
        <mxCell id="2019067189792" style="edgeStyle=orthogonalEdgeStyle;orthogonalLoop=1;rounded=0;jettySize=auto;entryX=0.5;entryY=0;entryDx=0;entryDy=0;exitX=1;exitY=0.5;exitDx=0;exitDy=0;targetPerimeterSpacing=30;sourcePerimeterSpacing=30;" parent="1" source="2019067190992" target="2019067190176" edge="1">
          <mxGeometry relative="1" as="geometry">
            <Array as="points">
              <mxPoint x="330" y="5520" />
              <mxPoint x="330" y="5720" />
              <mxPoint x="100" y="5720" />
            </Array>
          </mxGeometry>
        </mxCell>
        <mxCell id="2019067189840" value="for (int i = 0; i &lt; newRows; i++)" style="whiteSpace=wrap;rounded=0;dashed=0;inherit=default;shape=hexagon;perimeter=hexagonPerimeter2;fixedSize=1;" parent="1" vertex="1">
          <mxGeometry x="-131" y="5910" width="462" height="80" as="geometry" />
        </mxCell>
        <mxCell id="2019067189504" value="delete[] newArr[i];" style="whiteSpace=wrap;rounded=1;dashed=0;absoluteArcSize=1;arcSize=14;strokeWidth=2;" parent="1" vertex="1">
          <mxGeometry x="33.5" y="6030" width="133" height="80" as="geometry" />
        </mxCell>
        <mxCell id="2019067189552" value="1" style="edgeStyle=orthogonalEdgeStyle;orthogonalLoop=1;rounded=0;jettySize=auto;entryX=0.5;entryY=0;entryDx=0;entryDy=0;exitX=0.5;exitY=1;exitDx=0;exitDy=0;targetPerimeterSpacing=30;sourcePerimeterSpacing=30;" parent="1" source="2019067189840" target="2019067189504" edge="1">
          <mxGeometry y="25" relative="1" as="geometry" />
        </mxCell>
        <mxCell id="2019067189216" value="0" style="edgeStyle=orthogonalEdgeStyle;orthogonalLoop=1;rounded=0;jettySize=auto;entryX=0;entryY=0.5;entryDx=0;entryDy=0;exitX=0.5;exitY=1;exitDx=0;exitDy=0;targetPerimeterSpacing=30;sourcePerimeterSpacing=30;" parent="1" source="2019067189504" target="2019067189840" edge="1">
          <mxGeometry x="-1" y="312" relative="1" as="geometry">
            <mxPoint x="-72" y="-199" as="offset" />
          </mxGeometry>
        </mxCell>
        <mxCell id="2019067188784" style="edgeStyle=orthogonalEdgeStyle;orthogonalLoop=1;rounded=0;jettySize=auto;entryX=0.5;entryY=0;entryDx=0;entryDy=0;exitX=0.5;exitY=1;exitDx=0;exitDy=0;targetPerimeterSpacing=0;sourcePerimeterSpacing=0;" parent="1" source="2019067190176" target="2019067189840" edge="1">
          <mxGeometry relative="1" as="geometry" />
        </mxCell>
        <mxCell id="2019067189264" value="delete[] newArr;" style="whiteSpace=wrap;rounded=1;dashed=0;absoluteArcSize=1;arcSize=14;strokeWidth=2;" parent="1" vertex="1">
          <mxGeometry x="40" y="6220" width="120" height="80" as="geometry" />
        </mxCell>
        <mxCell id="2019067188640" style="edgeStyle=orthogonalEdgeStyle;orthogonalLoop=1;rounded=0;jettySize=auto;entryX=0.5;entryY=0;entryDx=0;entryDy=0;exitX=1;exitY=0.5;exitDx=0;exitDy=0;targetPerimeterSpacing=30;sourcePerimeterSpacing=30;" parent="1" source="2019067189840" target="2019067189264" edge="1">
          <mxGeometry relative="1" as="geometry">
            <Array as="points">
              <mxPoint x="351" y="5950" />
              <mxPoint x="351" y="6150" />
              <mxPoint x="100" y="6150" />
            </Array>
          </mxGeometry>
        </mxCell>
        <mxCell id="2019067188880" value="return 0;" style="whiteSpace=wrap;rounded=0;dashed=0;strokeWidth=2;shape=mxgraph.flowchart.terminator;" parent="1" vertex="1">
          <mxGeometry x="40" y="6340" width="120" height="80" as="geometry" />
        </mxCell>
        <mxCell id="2019067188208" style="edgeStyle=orthogonalEdgeStyle;orthogonalLoop=1;rounded=0;jettySize=auto;entryX=0.5;entryY=0;entryDx=0;entryDy=0;exitX=0.5;exitY=1;exitDx=0;exitDy=0;targetPerimeterSpacing=0;sourcePerimeterSpacing=0;" parent="1" source="2019067189264" target="2019067188880" edge="1">
          <mxGeometry relative="1" as="geometry" />
        </mxCell>
        <mxCell id="2019045475568" style="edgeStyle=orthogonalEdgeStyle;orthogonalLoop=1;rounded=0;jettySize=auto;entryX=0.5;entryY=0;entryDx=0;entryDy=0;exitX=0.5;exitY=1;exitDx=0;exitDy=0;targetPerimeterSpacing=0;sourcePerimeterSpacing=0;" parent="1" source="2019045475856" target="2019045475616" edge="1">
          <mxGeometry relative="1" as="geometry" />
        </mxCell>
        <mxCell id="NVaQKIY8q6ePWPQGP_k0-2019067193346" style="edgeStyle=orthogonalEdgeStyle;rounded=0;orthogonalLoop=1;jettySize=auto;html=1;entryX=0.556;entryY=0.04;entryDx=0;entryDy=0;entryPerimeter=0;" edge="1" parent="1" source="2019067192000" target="2019067190848">
          <mxGeometry relative="1" as="geometry">
            <Array as="points">
              <mxPoint x="350" y="5020" />
              <mxPoint x="350" y="5223" />
            </Array>
          </mxGeometry>
        </mxCell>
        <mxCell id="NVaQKIY8q6ePWPQGP_k0-2019067193348" value="0" style="text;html=1;align=center;verticalAlign=middle;resizable=0;points=[];autosize=1;strokeColor=none;fillColor=none;" vertex="1" parent="1">
          <mxGeometry x="345" y="4858" width="30" height="30" as="geometry" />
        </mxCell>
        <mxCell id="NVaQKIY8q6ePWPQGP_k0-2019067193349" value="0" style="text;html=1;align=center;verticalAlign=middle;resizable=0;points=[];autosize=1;strokeColor=none;fillColor=none;" vertex="1" parent="1">
          <mxGeometry x="325" y="4988" width="30" height="30" as="geometry" />
        </mxCell>
        <mxCell id="NVaQKIY8q6ePWPQGP_k0-2019067193350" value="0" style="text;html=1;align=center;verticalAlign=middle;resizable=0;points=[];autosize=1;strokeColor=none;fillColor=none;" vertex="1" parent="1">
          <mxGeometry x="295" y="1258" width="30" height="30" as="geometry" />
        </mxCell>
        <mxCell id="NVaQKIY8q6ePWPQGP_k0-2019067193354" style="edgeStyle=orthogonalEdgeStyle;rounded=0;orthogonalLoop=1;jettySize=auto;html=1;entryX=0;entryY=0.5;entryDx=0;entryDy=0;" edge="1" parent="1" target="2019045483200">
          <mxGeometry relative="1" as="geometry">
            <mxPoint x="-130" y="4390" as="targetPoint" />
            <mxPoint x="-140" y="4380" as="sourcePoint" />
            <Array as="points">
              <mxPoint x="-320" y="4380" />
              <mxPoint x="-320" y="3900" />
            </Array>
          </mxGeometry>
        </mxCell>
        <mxCell id="NVaQKIY8q6ePWPQGP_k0-2019067193359" value="е" style="text;html=1;align=center;verticalAlign=middle;resizable=0;points=[];autosize=1;strokeColor=none;fillColor=none;" vertex="1" parent="1">
          <mxGeometry x="189" y="3630" width="30" height="30" as="geometry" />
        </mxCell>
        <mxCell id="NVaQKIY8q6ePWPQGP_k0-2019067193360" value="0" style="text;html=1;align=center;verticalAlign=middle;resizable=0;points=[];autosize=1;strokeColor=none;fillColor=none;" vertex="1" parent="1">
          <mxGeometry x="310" y="3500" width="30" height="30" as="geometry" />
        </mxCell>
        <mxCell id="NVaQKIY8q6ePWPQGP_k0-2019067193361" value="0" style="text;html=1;align=center;verticalAlign=middle;resizable=0;points=[];autosize=1;strokeColor=none;fillColor=none;" vertex="1" parent="1">
          <mxGeometry x="30" y="3980" width="30" height="30" as="geometry" />
        </mxCell>
        <mxCell id="NVaQKIY8q6ePWPQGP_k0-2019067193362" value="0" style="text;html=1;align=center;verticalAlign=middle;resizable=0;points=[];autosize=1;strokeColor=none;fillColor=none;" vertex="1" parent="1">
          <mxGeometry x="155" y="3858" width="30" height="30" as="geometry" />
        </mxCell>
        <mxCell id="NVaQKIY8q6ePWPQGP_k0-2019067193366" value="0" style="text;html=1;align=center;verticalAlign=middle;resizable=0;points=[];autosize=1;strokeColor=none;fillColor=none;" vertex="1" parent="1">
          <mxGeometry x="315" y="2218" width="30" height="30" as="geometry" />
        </mxCell>
      </root>
    </mxGraphModel>
  </diagram>
</mxfile>
